<svg id="Layer_1" data-name="Layer 1" xmlns="http://www.w3.org/2000/svg" viewBox="0 0 512 512"><path d="M492.67,211.49H283.83a16.7,16.7,0,0,0-16.7,16.7v66.71a16.7,16.7,0,0,0,16.7,16.7h117.6a156.92,156.92,0,0,1-67.58,79.19L384,477.59c80.44-46.52,128-128.15,128-219.53a169.16,169.16,0,0,0-2.88-32.79A16.76,16.76,0,0,0,492.67,211.49Z" fill="#167ee6"/><path d="M256,411.83c-57.55,0-107.8-31.45-134.78-78l-86.81,50A255.8,255.8,0,0,0,384,477.71v-.12l-50.15-86.81A154.67,154.67,0,0,1,256,411.83Z" fill="#12b347"/><path d="M384,477.71v-.12l-50.15-86.81A154.67,154.67,0,0,1,256,411.83V512A255.53,255.53,0,0,0,384,477.71Z" fill="#0f993e"/><path d="M100.17,256a154.7,154.7,0,0,1,21-77.85l-86.81-50a254.83,254.83,0,0,0,0,255.76l86.81-50A154.7,154.7,0,0,1,100.17,256Z" fill="#ffd500"/><path d="M256,100.17a155.11,155.11,0,0,1,98.93,35.52,16.64,16.64,0,0,0,22.39-1l47.26-47.27a16.82,16.82,0,0,0-1-24.61A255.44,255.44,0,0,0,34.41,128.12l86.81,50C148.2,131.62,198.45,100.17,256,100.17Z" fill="#ff4b26"/><path d="M354.93,135.69a16.64,16.64,0,0,0,22.39-1l47.26-47.27a16.81,16.81,0,0,0-1-24.6A255.2,255.2,0,0,0,256,0V100.17A155.11,155.11,0,0,1,354.93,135.69Z" fill="#d93f21"/></svg>